<svg id="eW7hXYMS0tf1" xmlns="http://www.w3.org/2000/svg" xmlns:xlink="http://www.w3.org/1999/xlink" viewBox="0 0 300 300" shape-rendering="geometricPrecision" text-rendering="geometricPrecision" project-id="6fda8c23c9c840d0b47c04b8c59f4c8b" export-id="6f3caabe5c35458a9aac0d02caa37ed3" cached="false"><defs><linearGradient id="eW7hXYMS0tf4-stroke" x1="0" y1="0.5" x2="1" y2="0.5" spreadMethod="pad" gradientUnits="objectBoundingBox" gradientTransform="translate(0 0)"><stop id="eW7hXYMS0tf4-stroke-0" offset="0%" stop-color="#7a02ff"/><stop id="eW7hXYMS0tf4-stroke-1" offset="100%" stop-color="#e300ff"/></linearGradient><linearGradient id="eW7hXYMS0tf5-stroke" x1="0" y1="0.5" x2="1" y2="0.5" spreadMethod="pad" gradientUnits="objectBoundingBox" gradientTransform="translate(0 0)"><stop id="eW7hXYMS0tf5-stroke-0" offset="0%" stop-color="#7a02ff"/><stop id="eW7hXYMS0tf5-stroke-1" offset="100%" stop-color="#e300ff"/></linearGradient><linearGradient id="eW7hXYMS0tf6-stroke" x1="0" y1="0.5" x2="1" y2="0.5" spreadMethod="pad" gradientUnits="objectBoundingBox" gradientTransform="translate(0 0)"><stop id="eW7hXYMS0tf6-stroke-0" offset="0%" stop-color="#7a02ff"/><stop id="eW7hXYMS0tf6-stroke-1" offset="100%" stop-color="#e300ff"/></linearGradient><linearGradient id="eW7hXYMS0tf7-stroke" x1="0" y1="0.5" x2="1" y2="0.5" spreadMethod="pad" gradientUnits="objectBoundingBox" gradientTransform="translate(0 0)"><stop id="eW7hXYMS0tf7-stroke-0" offset="0%" stop-color="#7a02ff"/><stop id="eW7hXYMS0tf7-stroke-1" offset="100%" stop-color="#e300ff"/></linearGradient><linearGradient id="eW7hXYMS0tf8-stroke" x1="0" y1="0.5" x2="1" y2="0.5" spreadMethod="pad" gradientUnits="objectBoundingBox" gradientTransform="translate(0 0)"><stop id="eW7hXYMS0tf8-stroke-0" offset="0%" stop-color="#7a02ff"/><stop id="eW7hXYMS0tf8-stroke-1" offset="100%" stop-color="#e300ff"/></linearGradient><linearGradient id="eW7hXYMS0tf9-fill" x1="0" y1="0.5" x2="1" y2="0.5" spreadMethod="pad" gradientUnits="objectBoundingBox" gradientTransform="translate(0 0)"><stop id="eW7hXYMS0tf9-fill-0" offset="0%" stop-color="#7a02ff"/><stop id="eW7hXYMS0tf9-fill-1" offset="100%" stop-color="#e300ff"/></linearGradient><linearGradient id="eW7hXYMS0tf11-fill" x1="0" y1="0.5" x2="1" y2="0.5" spreadMethod="pad" gradientUnits="objectBoundingBox" gradientTransform="translate(0 0)"><stop id="eW7hXYMS0tf11-fill-0" offset="0%" stop-color="#d800ff"/><stop id="eW7hXYMS0tf11-fill-1" offset="100%" stop-color="#9500ff"/></linearGradient><linearGradient id="eW7hXYMS0tf12-fill" x1="0" y1="0.5" x2="1" y2="0.5" spreadMethod="pad" gradientUnits="objectBoundingBox" gradientTransform="translate(0 0)"><stop id="eW7hXYMS0tf12-fill-0" offset="0%" stop-color="#d800ff"/><stop id="eW7hXYMS0tf12-fill-1" offset="100%" stop-color="#9500ff"/></linearGradient><linearGradient id="eW7hXYMS0tf14-fill" x1="0" y1="0.5" x2="1" y2="0.5" spreadMethod="pad" gradientUnits="objectBoundingBox" gradientTransform="translate(0 0)"><stop id="eW7hXYMS0tf14-fill-0" offset="0%" stop-color="#d800ff"/><stop id="eW7hXYMS0tf14-fill-1" offset="100%" stop-color="#9500ff"/></linearGradient><linearGradient id="eW7hXYMS0tf15-fill" x1="0" y1="0.5" x2="1" y2="0.5" spreadMethod="pad" gradientUnits="objectBoundingBox" gradientTransform="translate(0 0)"><stop id="eW7hXYMS0tf15-fill-0" offset="0%" stop-color="#d800ff"/><stop id="eW7hXYMS0tf15-fill-1" offset="100%" stop-color="#9500ff"/></linearGradient></defs><g transform="translate(0 42.09597)"><g transform="translate(0 0.690103)"><rect width="200" height="150" rx="15" ry="15" transform="translate(50 14.713927)" fill="rgba(0,46,138,0)" stroke="url(#eW7hXYMS0tf4-stroke)"/><rect width="200" height="150" rx="15" ry="15" transform="matrix(.936092 0 0 0.904169 56.3908 21.901252)" fill="rgba(0,46,138,0)" stroke="url(#eW7hXYMS0tf5-stroke)"/><rect width="200" height="150" rx="15" ry="15" transform="matrix(.956909 0 0 1 54.3091 14.713927)" fill="rgba(0,46,138,0)" stroke="url(#eW7hXYMS0tf6-stroke)"/><rect width="60" height="30" rx="0" ry="0" transform="translate(120 164.713927)" fill="rgba(210,219,237,0.02)" stroke="url(#eW7hXYMS0tf7-stroke)"/><rect width="39.99984" height="25.0001" rx="12.5" ry="12.5" transform="matrix(1.000004 0 0 0.999996 130 167.213927)" fill="rgba(210,219,237,0.02)" stroke="url(#eW7hXYMS0tf8-stroke)"/><rect width="100" height="5" rx="2.5" ry="2.5" transform="translate(100 194.713927)" fill="url(#eW7hXYMS0tf9-fill)" stroke-width="0"/></g><g transform="translate(78.067372 0)"><rect width="45" height="6" rx="2" ry="2" transform="matrix(.906308 0.422618-.422618 0.906308 82.808553 68.667285)" fill="url(#eW7hXYMS0tf11-fill)" stroke-width="0"/><rect width="45" height="6" rx="2" ry="2" transform="matrix(.906308-.422618 0.422618 0.906308 80.272844 106.702929)" fill="url(#eW7hXYMS0tf12-fill)" stroke-width="0"/></g><g transform="translate(-53.353577-.595281)"><rect width="45" height="6" rx="2" ry="2" transform="matrix(.906308 0.422618-.422618 0.906308 154.229502 87.895562)" fill="url(#eW7hXYMS0tf14-fill)" stroke-width="0"/><rect width="45" height="6" rx="2" ry="2" transform="matrix(.906308-.422618 0.422618 0.906308 151.693793 88.280377)" fill="url(#eW7hXYMS0tf15-fill)" stroke-width="0"/></g></g></svg>
