<svg id="exyjuYWhEgn1" xmlns="http://www.w3.org/2000/svg" xmlns:xlink="http://www.w3.org/1999/xlink" viewBox="0 0 300 300" shape-rendering="geometricPrecision" text-rendering="geometricPrecision" project-id="f34eb4426175457581bccd1441728114" export-id="fc611027248d438f8848bb0339a7efaf" cached="false"><defs><linearGradient id="exyjuYWhEgn4-stroke" x1="0" y1="0.5" x2="1" y2="0.5" spreadMethod="pad" gradientUnits="objectBoundingBox" gradientTransform="translate(0 0)"><stop id="exyjuYWhEgn4-stroke-0" offset="0%" stop-color="#7a02ff"/><stop id="exyjuYWhEgn4-stroke-1" offset="100%" stop-color="#e300ff"/></linearGradient><linearGradient id="exyjuYWhEgn5-stroke" x1="0" y1="0.5" x2="1" y2="0.5" spreadMethod="pad" gradientUnits="objectBoundingBox" gradientTransform="translate(0 0)"><stop id="exyjuYWhEgn5-stroke-0" offset="0%" stop-color="#7a02ff"/><stop id="exyjuYWhEgn5-stroke-1" offset="100%" stop-color="#e300ff"/></linearGradient><linearGradient id="exyjuYWhEgn7-stroke" x1="0" y1="0.5" x2="1" y2="0.5" spreadMethod="pad" gradientUnits="objectBoundingBox" gradientTransform="translate(0 0)"><stop id="exyjuYWhEgn7-stroke-0" offset="0%" stop-color="#7a02ff"/><stop id="exyjuYWhEgn7-stroke-1" offset="100%" stop-color="#e300ff"/></linearGradient><linearGradient id="exyjuYWhEgn8-stroke" x1="0" y1="0.5" x2="1" y2="0.5" spreadMethod="pad" gradientUnits="objectBoundingBox" gradientTransform="translate(0 0)"><stop id="exyjuYWhEgn8-stroke-0" offset="0%" stop-color="#7a02ff"/><stop id="exyjuYWhEgn8-stroke-1" offset="100%" stop-color="#e300ff"/></linearGradient><linearGradient id="exyjuYWhEgn10-stroke" x1="0" y1="0.5" x2="1" y2="0.5" spreadMethod="pad" gradientUnits="objectBoundingBox" gradientTransform="translate(0 0)"><stop id="exyjuYWhEgn10-stroke-0" offset="0%" stop-color="#7a02ff"/><stop id="exyjuYWhEgn10-stroke-1" offset="100%" stop-color="#e300ff"/></linearGradient><linearGradient id="exyjuYWhEgn11-stroke" x1="0" y1="0.5" x2="1" y2="0.5" spreadMethod="pad" gradientUnits="objectBoundingBox" gradientTransform="translate(0 0)"><stop id="exyjuYWhEgn11-stroke-0" offset="0%" stop-color="#7a02ff"/><stop id="exyjuYWhEgn11-stroke-1" offset="100%" stop-color="#e300ff"/></linearGradient><linearGradient id="exyjuYWhEgn12-fill" x1="0" y1="0.5" x2="1" y2="0.5" spreadMethod="pad" gradientUnits="objectBoundingBox" gradientTransform="translate(0 0)"><stop id="exyjuYWhEgn12-fill-0" offset="0%" stop-color="#7a02ff"/><stop id="exyjuYWhEgn12-fill-1" offset="100%" stop-color="#e300ff"/></linearGradient><linearGradient id="exyjuYWhEgn12-stroke" x1="0" y1="0.5" x2="1" y2="0.5" spreadMethod="pad" gradientUnits="objectBoundingBox" gradientTransform="translate(0 0)"><stop id="exyjuYWhEgn12-stroke-0" offset="0%" stop-color="#7a02ff"/><stop id="exyjuYWhEgn12-stroke-1" offset="100%" stop-color="#e300ff"/></linearGradient><linearGradient id="exyjuYWhEgn13-stroke" x1="0" y1="0.5" x2="1" y2="0.5" spreadMethod="pad" gradientUnits="objectBoundingBox" gradientTransform="translate(0 0)"><stop id="exyjuYWhEgn13-stroke-0" offset="0%" stop-color="#7a02ff"/><stop id="exyjuYWhEgn13-stroke-1" offset="100%" stop-color="#e300ff"/></linearGradient></defs><g transform="matrix(1.7 0 0 1.805664-78.985806-66.872153)"><g transform="matrix(.906308-.422618 0.422618 0.906308-38.139131 68.178678)"><ellipse rx="30" ry="30" transform="matrix(1.708186 0 0 0.996447 134.697509 120.10659)" fill="rgba(210,219,237,0)" stroke="url(#exyjuYWhEgn4-stroke)"/><ellipse rx="30" ry="30" transform="matrix(1.494662 0 0 0.830367 134.697509 120.10659)" fill="rgba(210,219,237,0)" stroke="url(#exyjuYWhEgn5-stroke)"/></g><g transform="matrix(.906308 0.422618-.422618 0.906308 63.379348-45.672575)"><ellipse rx="30" ry="30" transform="matrix(1.708186 0 0 0.996447 134.697509 120.10659)" fill="rgba(210,219,237,0)" stroke="url(#exyjuYWhEgn7-stroke)"/><ellipse rx="30" ry="30" transform="matrix(1.494662 0 0 0.830367 134.697509 120.10659)" fill="rgba(210,219,237,0)" stroke="url(#exyjuYWhEgn8-stroke)"/></g><g transform="matrix(0 1-1 0 254.804097-14.590915)"><ellipse rx="30" ry="30" transform="matrix(1.708186 0 0 0.996447 134.697509 120.10659)" fill="rgba(210,219,237,0)" stroke="url(#exyjuYWhEgn10-stroke)"/><ellipse rx="30" ry="30" transform="matrix(1.494662 0 0 0.830367 134.697509 120.10659)" fill="rgba(210,219,237,0)" stroke="url(#exyjuYWhEgn11-stroke)"/></g><ellipse rx="25.545394" ry="23.746539" transform="matrix(.58719 0 0 0.631671 134.697507 120.106589)" fill="url(#exyjuYWhEgn12-fill)" stroke="url(#exyjuYWhEgn12-stroke)"/><ellipse rx="29.80296" ry="27.704295" transform="matrix(.58719 0 0 0.631671 134.697511 120.106595)" fill="none" stroke="url(#exyjuYWhEgn13-stroke)"/></g></svg>
