<svg id="esuSKaMdkQr1" xmlns="http://www.w3.org/2000/svg" xmlns:xlink="http://www.w3.org/1999/xlink" viewBox="0 0 300 300" shape-rendering="geometricPrecision" text-rendering="geometricPrecision" project-id="d381f4d781fc44ac97d2573d7e051496" export-id="43df81bebea94f29a3901f6ebdecf843" cached="false"><defs><linearGradient id="esuSKaMdkQr2-stroke" x1="0" y1="0.5" x2="1" y2="0.5" spreadMethod="pad" gradientUnits="objectBoundingBox" gradientTransform="translate(0 0)"><stop id="esuSKaMdkQr2-stroke-0" offset="0%" stop-color="#7a02ff"/><stop id="esuSKaMdkQr2-stroke-1" offset="100%" stop-color="#e300ff"/></linearGradient><linearGradient id="esuSKaMdkQr3-stroke" x1="0" y1="0.5" x2="1" y2="0.5" spreadMethod="pad" gradientUnits="objectBoundingBox" gradientTransform="translate(0 0)"><stop id="esuSKaMdkQr3-stroke-0" offset="0%" stop-color="#7a02ff"/><stop id="esuSKaMdkQr3-stroke-1" offset="100%" stop-color="#e300ff"/></linearGradient><linearGradient id="esuSKaMdkQr4-stroke" x1="0" y1="0.5" x2="1" y2="0.5" spreadMethod="pad" gradientUnits="objectBoundingBox" gradientTransform="translate(0 0)"><stop id="esuSKaMdkQr4-stroke-0" offset="0%" stop-color="#7a02ff"/><stop id="esuSKaMdkQr4-stroke-1" offset="100%" stop-color="#e300ff"/></linearGradient><linearGradient id="esuSKaMdkQr16-fill" x1="0" y1="0.5" x2="1" y2="0.5" spreadMethod="pad" gradientUnits="objectBoundingBox" gradientTransform="translate(0 0)"><stop id="esuSKaMdkQr16-fill-0" offset="77%" stop-color="#7a02ff"/><stop id="esuSKaMdkQr16-fill-1" offset="100%" stop-color="#e300ff"/></linearGradient><linearGradient id="esuSKaMdkQr17-fill" x1="0" y1="0.5" x2="1" y2="0.5" spreadMethod="pad" gradientUnits="objectBoundingBox" gradientTransform="translate(0 0)"><stop id="esuSKaMdkQr17-fill-0" offset="77%" stop-color="#7a02ff"/><stop id="esuSKaMdkQr17-fill-1" offset="100%" stop-color="#e300ff"/></linearGradient><linearGradient id="esuSKaMdkQr18-fill" x1="0.799997" y1="1" x2="0.800001" y2="-0.333347" spreadMethod="pad" gradientUnits="objectBoundingBox" gradientTransform="translate(0 0)"><stop id="esuSKaMdkQr18-fill-0" offset="0%" stop-color="#7a02ff"/><stop id="esuSKaMdkQr18-fill-1" offset="100%" stop-color="#e300ff"/></linearGradient><linearGradient id="esuSKaMdkQr26-fill" x1="0" y1="0.5" x2="1" y2="0.5" spreadMethod="pad" gradientUnits="objectBoundingBox" gradientTransform="translate(0 0)"><stop id="esuSKaMdkQr26-fill-0" offset="0%" stop-color="#7a02ff"/><stop id="esuSKaMdkQr26-fill-1" offset="100%" stop-color="#e300ff"/></linearGradient></defs><rect width="200" height="200" rx="15" ry="15" transform="translate(50 50)" fill="rgba(210,219,237,0)" stroke="url(#esuSKaMdkQr2-stroke)"/><rect width="192.181166" height="180.59554" rx="15" ry="15" transform="matrix(.884582 0 0 0.94133 65 65)" fill="rgba(210,219,237,0)" stroke="url(#esuSKaMdkQr3-stroke)"/><rect width="192.181166" height="180.59554" rx="15" ry="15" transform="matrix(.947476 0 0 1.100151 58.956479 49.999967)" fill="rgba(210,219,237,0)" stroke="url(#esuSKaMdkQr4-stroke)"/><ellipse rx="5" ry="5" transform="translate(81 81.761566)" fill="#7a02ff" stroke-width="0"/><ellipse rx="5" ry="5" transform="translate(218 81)" fill="#e300ff" stroke-width="0"/><ellipse rx="5" ry="5" transform="translate(81 220)" fill="#7a02ff" stroke-width="0"/><ellipse rx="5" ry="5" transform="translate(218 220)" fill="#e300ff" stroke-width="0"/><g transform="translate(-3.760372-4.119156)"><ellipse rx="10" ry="10" transform="translate(198.944304 204.999895)" fill="#e300ff" stroke-width="0"/><ellipse rx="10" ry="10" transform="translate(168.576442 154.999965)" fill="#e300ff" stroke-width="0"/><ellipse rx="10" ry="10" transform="translate(168.576442 117.530046)" fill="#e300ff" stroke-width="0"/><ellipse rx="10" ry="10" transform="translate(133.576407 134.99993)" fill="#7a02ff" stroke-width="0"/><rect width="50" height="30" rx="3" ry="3" transform="matrix(.800202 0 0 0.333331 152.267468 200.000035)" fill="#e300ff" stroke-width="0"/><rect width="50" height="30" rx="3" ry="3" transform="matrix(.666669 0 0 0.333331 175.610854 150)" fill="#e300ff" stroke-width="0"/><path d="M127.243,194.9999c-1.10457,0-2.00001-.44771-2.00001-.99999v-7.99994c0-.55228.89543-.99999,2.00001-.99999h29.33344c1.10457,0,2.00001.44771,2.00001.99999v7.99994c0,.55228-.89543.99999-2.00001.99999h-29.33344Z" fill="url(#esuSKaMdkQr16-fill)" stroke-width="0"/><rect width="50" height="30" rx="3" ry="3" transform="matrix(.666669 0 0 0.333331 128.576442 150)" fill="url(#esuSKaMdkQr17-fill)" stroke-width="0"/><rect width="58.333528" height="30" rx="3" ry="3" transform="matrix(0 0.42857-.333331 0 158.576442 184.999965)" fill="url(#esuSKaMdkQr18-fill)" stroke-width="0"/><rect width="58.333528" height="30" rx="3" ry="3" transform="matrix(0 1.14519-.333331 0 108.576372 143.196992)" fill="#7a02ff" stroke-width="0"/><rect width="58.333528" height="30" rx="3" ry="3" transform="matrix(0 1.14519-.333331 0 208.718837 93.238419)" fill="#e300ff" stroke-width="0"/><rect width="58.333528" height="30" rx="3" ry="3" transform="matrix(0 0.489997-.333331 0 108.576372 93.238419)" fill="#7a02ff" stroke-width="0"/><rect width="58.333528" height="30" rx="3" ry="3" transform="matrix(0 0.42857-.333331 0 133.576407 184.999965)" fill="#7a02ff" stroke-width="0"/><rect width="58.333528" height="30" rx="3" ry="3" transform="matrix(0 0.42857-.333331 0 138.576372 134.99993)" fill="#7a02ff" stroke-width="0"/><rect width="58.333528" height="30" rx="3" ry="3" transform="matrix(0 0.42857-.333331 0 173.576407 122.49993)" fill="#e300ff" stroke-width="0"/><rect width="70.000233" height="30" rx="3" ry="3" transform="matrix(.42857 0 0 0.333331 103.576407 200.000035)" fill="#7a02ff" stroke-width="0"/><rect width="70.000233" height="30" rx="3" ry="3" transform="matrix(1.522063 0 0 0.333331 102.174072 93.238419)" fill="url(#esuSKaMdkQr26-fill)" stroke-width="0"/></g></svg>
